<?xml version="1.0" standalone="no"?>
<!DOCTYPE svg PUBLIC "-//W3C//DTD SVG 20010904//EN"
 "http://www.w3.org/TR/2001/REC-SVG-20010904/DTD/svg10.dtd">
<svg version="1.0" xmlns="http://www.w3.org/2000/svg"
 width="200.000000pt" height="200.000000pt" viewBox="0 0 200.000000 200.000000"
 preserveAspectRatio="xMidYMid meet">

<g transform="translate(0.000000,200.000000) scale(0.100000,-0.100000)"
fill="#000000" stroke="none">
<path d="M1239 1646 c-92 -63 -90 -190 4 -260 38 -28 126 -28 164 0 43 32 65
68 70 116 11 93 -57 168 -152 168 -37 0 -60 -7 -86 -24z"/>
<path d="M1755 1501 c-39 -17 -60 -55 -161 -299 l-102 -247 -299 -5 c-336 -6
-343 -7 -362 -77 -14 -50 -14 -377 0 -426 7 -27 20 -44 45 -59 20 -12 34 -28
34 -39 0 -17 8 -19 90 -19 83 0 90 1 90 20 0 19 7 20 205 20 198 0 205 -1 205
-20 0 -19 7 -20 90 -20 83 0 90 2 90 20 0 12 12 26 31 35 50 26 59 64 59 238
l0 154 115 279 c63 153 115 289 115 302 0 52 -26 78 -116 116 -91 38 -97 39
-129 27z"/>
<path d="M702 1353 c-50 -29 -63 -6 122 -221 128 -150 141 -162 172 -162 59 0
32 42 -36 56 -57 12 -81 47 -63 95 12 31 10 36 -59 135 -39 58 -76 108 -82
112 -6 5 -29 -1 -54 -15z"/>
<path d="M1316 1310 c-34 -31 -65 -95 -51 -108 4 -4 24 12 44 36 30 34 45 43
71 44 37 1 70 -29 70 -65 0 -56 -107 -150 -207 -183 -29 -9 -53 -20 -53 -24 0
-5 -3 -15 -6 -24 -5 -14 10 -16 134 -16 l140 0 21 78 c37 139 22 233 -43 273
-45 27 -80 24 -120 -11z"/>
<path d="M276 1257 c-25 -18 -17 -65 13 -86 20 -13 23 -13 19 -1 -12 33 10 49
62 47 34 -1 54 3 65 14 15 14 13 15 -15 11 -18 -2 -40 2 -55 12 -29 19 -65 21
-89 3z"/>
<path d="M1312 1221 c-71 -69 -124 -85 -265 -78 -98 4 -111 3 -128 -14 -22
-22 -23 -32 -9 -59 23 -43 206 -58 315 -26 133 40 238 145 200 202 -24 37 -57
30 -113 -25z"/>
<path d="M242 1033 l3 -108 77 -3 c69 -3 77 -1 83 18 3 11 14 20 24 20 29 0
41 22 41 78 0 51 -2 54 -30 65 -16 6 -30 17 -30 24 0 10 -23 13 -85 13 l-86 0
3 -107z m198 2 c0 -33 -4 -45 -15 -45 -11 0 -15 12 -15 45 0 33 4 45 15 45 11
0 15 -12 15 -45z"/>
<path d="M0 845 c0 -45 0 -45 35 -45 l35 0 0 -230 0 -230 30 0 30 0 0 105 0
105 195 0 195 0 0 -105 0 -105 30 0 30 0 0 230 0 230 35 0 c35 0 35 0 35 45
l0 45 -325 0 -325 0 0 -45z"/>
<path d="M781 863 c-16 -14 -33 -65 -71 -213 -58 -229 -61 -260 -24 -289 29
-23 80 -27 105 -8 31 24 38 48 22 85 -11 27 -13 78 -11 238 2 112 2 204 2 204
-1 0 -11 -8 -23 -17z"/>
</g>
</svg>
