<?xml version="1.0" standalone="no"?>
<!DOCTYPE svg PUBLIC "-//W3C//DTD SVG 20010904//EN"
 "http://www.w3.org/TR/2001/REC-SVG-20010904/DTD/svg10.dtd">
<svg version="1.0" xmlns="http://www.w3.org/2000/svg"
 width="500.000000pt" height="500.000000pt" viewBox="0 0 300.000000 258.000000"
 preserveAspectRatio="xMidYMid meet">

<g transform="translate(0.000000,258.000000) scale(0.100000,-0.100000)"
fill="white" stroke="none">
<path d="M1146 2565 c-22 -8 -53 -23 -68 -35 -28 -21 -31 -21 -65 -5 -56 27
-173 17 -242 -20 -121 -66 -189 -154 -198 -254 -5 -50 -2 -66 16 -97 21 -35
21 -37 4 -56 -11 -13 -19 -41 -21 -83 -4 -61 -3 -66 26 -95 36 -36 57 -37 147
-9 37 11 69 18 71 16 12 -11 104 -292 106 -320 1 -18 -2 -67 -6 -109 l-8 -77
41 -44 c52 -57 56 -94 9 -99 l-31 -3 -61 -182 c-33 -101 -57 -185 -54 -189 8
-7 462 -83 501 -84 17 0 27 5 27 15 0 8 19 96 41 195 23 98 39 186 36 194 -4
9 -17 16 -30 16 -37 0 -37 8 1 46 29 29 39 34 67 28 35 -6 51 9 89 85 l18 33
-56 50 c-31 27 -56 53 -56 58 0 4 23 10 50 12 28 3 54 8 57 12 4 4 2 20 -4 36
-10 26 -9 32 7 40 10 6 32 10 49 10 54 0 49 18 -25 80 -10 8 -31 20 -48 26
-26 9 -32 18 -38 52 -4 27 -21 60 -46 90 -49 59 -162 226 -162 238 0 5 13 17
29 27 16 9 43 33 60 52 57 66 35 161 -43 181 -23 5 -26 11 -26 49 0 66 -18
105 -56 121 -41 17 -58 17 -108 -1z"/>
<path d="M2310 2145 c-19 -23 -8 -50 22 -53 19 -2 30 3 38 18 21 39 -31 70
-60 35z"/>
<path d="M2221 2059 c-150 -29 -295 -155 -384 -334 -34 -68 -87 -221 -87 -251
0 -12 81 -14 585 -14 l585 0 0 51 c0 138 -62 291 -156 387 -130 130 -356 198
-543 161z"/>
<path d="M1700 1405 c0 -4 9 -20 21 -36 l20 -29 140 0 140 0 -7 -22 c-3 -13
-18 -43 -33 -68 -22 -38 -26 -56 -25 -119 l1 -74 -83 -138 c-45 -77 -93 -164
-106 -195 l-23 -57 -12 69 c-11 67 -11 70 11 87 l23 19 -19 51 c-11 28 -25
101 -32 162 -18 154 -37 184 -113 185 -62 0 -71 -7 -82 -63 -6 -29 -27 -132
-47 -230 -20 -99 -33 -188 -31 -199 5 -18 2 -20 -26 -14 -126 26 -314 38 -502
32 -110 -3 -217 -9 -238 -12 l-39 -6 24 38 c22 36 159 465 162 508 2 28 -47
60 -79 52 -37 -9 -112 -81 -224 -216 -52 -63 -102 -121 -111 -128 -13 -10 -10
-16 23 -45 l38 -33 -36 -54 c-19 -29 -54 -93 -77 -141 -40 -87 -42 -89 -107
-125 -75 -41 -203 -125 -198 -130 2 -2 43 14 93 35 242 105 510 149 839 138
209 -7 397 -30 765 -93 544 -93 859 -125 1075 -109 l110 9 -105 7 c-144 10
-245 25 -445 64 -255 50 -435 95 -435 108 0 7 15 57 33 112 19 55 42 140 53
189 l19 89 75 50 c41 28 91 63 111 79 25 20 58 33 113 43 43 8 80 15 82 15 2
0 4 5 4 11 0 7 -18 10 -50 7 -28 -1 -50 -1 -50 2 0 3 29 29 65 58 l66 52 238
0 238 0 23 25 c13 14 20 28 17 32 -10 9 -1287 18 -1287 8z m500 -89 c-14 -13
-51 -35 -82 -49 l-58 -26 0 43 c0 23 3 46 7 49 3 4 40 7 82 7 l76 0 -25 -24z
m91 4 c-13 -11 -28 -20 -35 -20 -6 1 0 10 13 20 13 11 28 20 35 20 6 -1 0 -10
-13 -20z m129 16 c0 -9 -112 -77 -121 -74 -13 4 89 78 108 78 7 0 13 -2 13 -4z"/>

</g>
</svg>
